<svg xmlns="http://www.w3.org/2000/svg" xmlns:xlink="http://www.w3.org/1999/xlink" width="80" zoomAndPan="magnify" viewBox="0 0 60 52.499999" height="70" preserveAspectRatio="xMidYMid meet" version="1.0"><defs><clipPath id="1b46552035"><path d="M 0.695312 0.691406 L 59.296875 0.691406 L 59.296875 51.210938 L 0.695312 51.210938 Z M 0.695312 0.691406 " clip-rule="nonzero"/></clipPath></defs><g clip-path="url(#1b46552035)"><path fill="#5e5e5e" d="M 29.949219 33.667969 C 28.199219 33.667969 26.777344 35.082031 26.777344 36.828125 C 26.777344 38.570312 28.199219 39.984375 29.949219 39.984375 C 31.703125 39.984375 33.121094 38.570312 33.121094 36.828125 C 33.121094 35.082031 31.703125 33.667969 29.949219 33.667969 Z M 29.953125 8.394531 C 28.953125 8.394531 28 8.8125 27.3125 9.535156 C 26.621094 10.257812 26.253906 11.234375 26.304688 12.234375 L 27.15625 28.007812 C 27.207031 28.964844 27.757812 29.828125 28.597656 30.292969 C 29.441406 30.757812 30.460938 30.757812 31.308594 30.292969 C 32.148438 29.828125 32.703125 28.964844 32.75 28.007812 L 33.59375 12.234375 C 33.644531 11.242188 33.289062 10.265625 32.59375 9.535156 C 31.910156 8.8125 30.957031 8.394531 29.953125 8.394531 Z M 29.945312 0.6875 C 37.558594 0.6875 45.070312 3.183594 50.511719 7.59375 C 55.949219 12 59.144531 18.199219 59.144531 24.542969 C 59.144531 30.214844 56.484375 35.703125 52.058594 39.957031 C 52.4375 41.136719 52.800781 42.320312 53.347656 43.34375 C 54.109375 44.777344 55.179688 46.152344 56.339844 47.574219 C 57.089844 48.488281 56.953125 49.832031 56.039062 50.574219 C 55.6875 50.859375 55.257812 51.023438 54.804688 51.050781 C 52.632812 51.167969 50.390625 51.21875 48.101562 50.761719 C 45.277344 50.1875 42.554688 48.871094 40.363281 46.910156 C 40.296875 46.847656 40.265625 46.804688 40.203125 46.742188 C 36.925781 47.753906 33.472656 48.394531 29.945312 48.394531 C 22.335938 48.394531 14.828125 45.894531 9.386719 41.488281 C 3.941406 37.082031 0.761719 30.886719 0.753906 24.542969 C 0.75 18.203125 3.941406 12 9.386719 7.59375 C 14.828125 3.183594 22.335938 0.6875 29.945312 0.6875 " fill-opacity="1" fill-rule="nonzero"/></g></svg>