<svg xmlns="http://www.w3.org/2000/svg" xmlns:xlink="http://www.w3.org/1999/xlink" width="400" zoomAndPan="magnify" viewBox="0 0 300 299.999988" height="400" preserveAspectRatio="xMidYMid meet" version="1.0"><defs><clipPath id="652836c72b"><path d="M 27.375 0 L 272.625 0 L 272.625 300 L 27.375 300 Z M 27.375 0 " clip-rule="nonzero"/></clipPath></defs><g clip-path="url(#652836c72b)"><path fill="#ffffff" d="M 40.988281 72.976562 L 258.964844 72.976562 L 234.449219 277.597656 C 232.957031 290.144531 221.117188 299.578125 206.882812 299.578125 L 93.074219 299.578125 C 78.835938 299.578125 67 290.144531 65.5 277.597656 Z M 47.035156 23.167969 L 111.617188 23.167969 L 111.617188 15.386719 C 111.617188 11.25 113.308594 7.488281 116.027344 4.769531 C 118.746094 2.050781 122.496094 0.367188 126.640625 0.367188 L 173.316406 0.367188 C 177.453125 0.367188 181.207031 2.050781 183.925781 4.769531 C 186.648438 7.488281 188.335938 11.25 188.335938 15.386719 L 188.335938 23.167969 L 252.921875 23.167969 C 258.308594 23.167969 263.21875 25.386719 266.777344 28.9375 L 266.796875 28.953125 L 266.808594 28.9375 C 270.363281 32.5 272.574219 37.417969 272.574219 42.828125 L 272.574219 55.746094 C 272.574219 59.472656 269.550781 62.496094 265.832031 62.496094 L 34.117188 62.496094 C 30.394531 62.496094 27.375 59.472656 27.375 55.746094 L 27.375 42.828125 C 27.375 37.417969 29.578125 32.5 33.140625 28.9375 C 33.292969 28.78125 33.449219 28.640625 33.609375 28.503906 C 37.132812 25.203125 41.859375 23.167969 47.035156 23.167969 Z M 125.109375 23.167969 L 174.84375 23.167969 L 174.84375 15.386719 C 174.84375 14.976562 174.664062 14.59375 174.390625 14.3125 C 174.109375 14.039062 173.71875 13.863281 173.316406 13.863281 L 126.640625 13.863281 C 126.234375 13.863281 125.84375 14.039062 125.570312 14.3125 C 125.289062 14.59375 125.109375 14.976562 125.109375 15.386719 Z M 140.460938 96.957031 C 140.460938 91.292969 145.636719 86.714844 152.015625 86.714844 C 158.398438 86.714844 163.574219 91.292969 163.574219 96.957031 L 163.574219 275.609375 C 163.574219 281.265625 158.398438 285.84375 152.015625 285.84375 C 145.636719 285.84375 140.460938 281.265625 140.460938 275.609375 Z M 82.980469 97.472656 C 82.660156 91.835938 87.546875 87.039062 93.902344 86.757812 C 100.253906 86.464844 105.675781 90.796875 105.996094 96.433594 L 116.691406 275.082031 C 117.007812 280.714844 112.121094 285.523438 105.765625 285.804688 C 99.421875 286.085938 93.996094 281.75 93.675781 276.121094 Z M 198.039062 96.433594 C 198.359375 90.796875 203.777344 86.464844 210.136719 86.757812 C 216.484375 87.039062 221.371094 91.835938 221.054688 97.472656 L 210.355469 276.121094 C 210.035156 281.75 204.609375 286.085938 198.265625 285.804688 C 191.910156 285.523438 187.019531 280.714844 187.335938 275.082031 Z M 198.039062 96.433594 " fill-opacity="1" fill-rule="evenodd"/></g></svg>